<svg width="47" height="54" viewBox="0 0 47 54" fill="none" xmlns="http://www.w3.org/2000/svg">
<rect width="47" height="54" fill="#302B27"/>
<g clip-path="url(#clip0_20_93)">
<path d="M35.7808 15.2192C35.8846 15.3232 35.9556 15.4554 35.9849 15.5994C36.0143 15.7434 36.0007 15.8929 35.9458 16.0292L27.2173 37.8497C27.1404 38.0419 27.0119 38.2091 26.8461 38.333C26.6802 38.4568 26.4834 38.5326 26.2774 38.5518C26.0713 38.571 25.8639 38.533 25.678 38.442C25.4921 38.3509 25.3349 38.2103 25.2238 38.0357L20.4568 30.5432L12.9643 25.7762C12.7893 25.6652 12.6483 25.508 12.557 25.3219C12.4657 25.1359 12.4275 24.9282 12.4468 24.7218C12.466 24.5154 12.5419 24.3184 12.666 24.1524C12.7902 23.9864 12.9577 23.858 13.1503 23.7812L34.9708 15.0557C35.1071 15.0008 35.2566 14.9872 35.4006 15.0166C35.5446 15.0459 35.6768 15.1169 35.7808 15.2207V15.2192ZM21.9538 30.1052L26.0953 36.6122L33.1948 18.8642L21.9538 30.1052ZM32.1343 17.8037L14.3863 24.9032L20.8948 29.0432L32.1343 17.8037Z" fill="#F7F7FF"/>
</g>
<defs>
<clipPath id="clip0_20_93">
<rect width="24" height="24" fill="white" transform="translate(12 15)"/>
</clipPath>
</defs>
</svg>
